<svg xmlns="http://www.w3.org/2000/svg" width="600" height="600" viewBox="0 0 600 600"><rect width="100%" height="100%" fill="#e0e0e0"/><path fill="#333333" d="M218.02 367.56h33.02v23.5h-101.6v-23.5h37.21V260.5q0-6.35.38-13.08l-26.41 22.1q-2.29 1.78-4.51 2.22-2.22.45-4.19.07t-3.49-1.34q-1.53-.95-2.29-2.09l-9.91-13.59 56.01-47.63h25.78zm62.36 6.23q0-3.94 1.46-7.5 1.46-3.55 4-6.09t6.1-4.06q3.55-1.53 7.62-1.53 4.06 0 7.55 1.53 3.5 1.52 6.1 4.06t4.13 6.09q1.52 3.56 1.52 7.5 0 4.06-1.52 7.55-1.53 3.5-4.13 6.04t-6.1 4q-3.49 1.46-7.55 1.46-4.07 0-7.62-1.46-3.56-1.46-6.1-4t-4-6.04q-1.46-3.49-1.46-7.55m0-90.55q0-3.94 1.46-7.5 1.46-3.55 4-6.09t6.1-4.07q3.55-1.52 7.62-1.52 4.06 0 7.55 1.52 3.5 1.53 6.1 4.07t4.13 6.09q1.52 3.56 1.52 7.5 0 4.06-1.52 7.55-1.53 3.5-4.13 6.04t-6.1 4q-3.49 1.46-7.55 1.46-4.07 0-7.62-1.46-3.56-1.46-6.1-4t-4-6.04q-1.46-3.49-1.46-7.55m150.37 84.32h33.02v23.5h-101.6v-23.5h37.21V260.5q0-6.35.38-13.08l-26.42 22.1q-2.28 1.78-4.5 2.22-2.23.45-4.2.07-1.96-.38-3.49-1.34-1.52-.95-2.28-2.09l-9.91-13.59 56.01-47.63h25.78z"/></svg>